<?xml version="1.0" encoding="UTF-8" standalone="no"?>
<!-- Created with Inkscape (http://www.inkscape.org/) -->

<svg
   xmlns:dc="http://purl.org/dc/elements/1.1/"
   xmlns:cc="http://creativecommons.org/ns#"
   xmlns:rdf="http://www.w3.org/1999/02/22-rdf-syntax-ns#"
   xmlns:svg="http://www.w3.org/2000/svg"
   xmlns="http://www.w3.org/2000/svg"
   xmlns:xlink="http://www.w3.org/1999/xlink"
   xmlns:sodipodi="http://sodipodi.sourceforge.net/DTD/sodipodi-0.dtd"
   xmlns:inkscape="http://www.inkscape.org/namespaces/inkscape"
   width="24"
   height="24"
   viewBox="0 0 24 24"
   id="svg2"
   version="1.1"
   inkscape:version="0.91 r13725"
   sodipodi:docname="latte-dock24.svg">
  <defs
     id="defs4">
    <linearGradient
       gradientTransform="matrix(0.70711,-0.70711,0.70711,0.70711,-273.44,450.74)"
       gradientUnits="userSpaceOnUse"
       x2="0"
       y2="544.78998"
       y1="531.78998"
       id="d-5">
      <stop
         id="stop4286" />
      <stop
         id="stop4288"
         stop-opacity="0"
         offset="1" />
    </linearGradient>
    <linearGradient
       id="linearGradient4162"
       inkscape:collect="always">
      <stop
         id="stop4164"
         offset="0"
         style="stop-color:#f3e0c1;stop-opacity:1" />
      <stop
         id="stop4166"
         offset="1"
         style="stop-color:#fff7eb;stop-opacity:1" />
    </linearGradient>
    <linearGradient
       inkscape:collect="always"
       xlink:href="#d-5"
       id="linearGradient4190"
       x1="22.385242"
       y1="18.387005"
       x2="39.823719"
       y2="35.825481"
       gradientUnits="userSpaceOnUse"
       gradientTransform="matrix(0.48630197,0,0,0.48630197,0.22875799,1028.3465)" />
    <linearGradient
       id="linearGradient4386"
       y1="538.79999"
       y2="505.79999"
       x2="0"
       gradientUnits="userSpaceOnUse"
       gradientTransform="matrix(1.45455,0,0,1,-198.81,-31)">
      <stop
         id="stop4390"
         stop-color="#e8b971"
         offset="0" />
      <stop
         id="stop4388"
         stop-color="#bd8d48"
         offset="1" />
    </linearGradient>
    <linearGradient
       inkscape:collect="always"
       xlink:href="#linearGradient4386"
       id="linearGradient4228"
       x1="12.037523"
       y1="1030.4185"
       x2="12.037523"
       y2="1050.5873"
       gradientUnits="userSpaceOnUse" />
    <linearGradient
       inkscape:collect="always"
       xlink:href="#linearGradient4162"
       id="linearGradient4243"
       x1="11.913291"
       y1="16.028769"
       x2="11.913291"
       y2="5.3345847"
       gradientUnits="userSpaceOnUse"
       gradientTransform="translate(0,1028.3622)" />
    <linearGradient
       inkscape:collect="always"
       xlink:href="#d-5"
       id="linearGradient4269"
       x1="8.324194"
       y1="17.418642"
       x2="12.806447"
       y2="21.900896"
       gradientUnits="userSpaceOnUse"
       gradientTransform="translate(0,1028.3622)" />
    <linearGradient
       inkscape:collect="always"
       xlink:href="#d-5"
       id="linearGradient4277"
       x1="11.199268"
       y1="18.281603"
       x2="14.462165"
       y2="21.544498"
       gradientUnits="userSpaceOnUse"
       gradientTransform="translate(0,1028.3622)" />
    <linearGradient
       inkscape:collect="always"
       xlink:href="#d-5"
       id="linearGradient4285"
       x1="14.240234"
       y1="17.299181"
       x2="17.361467"
       y2="20.420414"
       gradientUnits="userSpaceOnUse"
       gradientTransform="translate(0,1028.3622)" />
  </defs>
  <sodipodi:namedview
     id="base"
     pagecolor="#ffffff"
     bordercolor="#666666"
     borderopacity="1.0"
     inkscape:pageopacity="0.0"
     inkscape:pageshadow="2"
     inkscape:zoom="6.1300268"
     inkscape:cx="5.2583684"
     inkscape:cy="5.1088474"
     inkscape:document-units="px"
     inkscape:current-layer="layer1"
     showgrid="false"
     units="px"
     inkscape:window-width="1600"
     inkscape:window-height="844"
     inkscape:window-x="0"
     inkscape:window-y="30"
     inkscape:window-maximized="1"
     inkscape:snap-grids="false">
    <inkscape:grid
       type="xygrid"
       id="grid4246" />
  </sodipodi:namedview>
  <metadata
     id="metadata7">
    <rdf:RDF>
      <cc:Work
         rdf:about="">
        <dc:format>image/svg+xml</dc:format>
        <dc:type
           rdf:resource="http://purl.org/dc/dcmitype/StillImage" />
        <dc:title />
      </cc:Work>
    </rdf:RDF>
  </metadata>
  <g
     inkscape:label="Layer 1"
     inkscape:groupmode="layer"
     id="layer1"
     transform="translate(0,-1028.3622)">
    <path
       cx="12"
       cy="1040.3622"
       r="10"
       id="path4230"
       style="opacity:1;fill:#000000;fill-opacity:1;stroke:none;stroke-width:2;stroke-miterlimit:4;stroke-dasharray:none;stroke-opacity:1" />
    <g
       id="g4260">
      <circle
         cx="12"
         cy="1040.3622"
         r="10"
         id="path4136"
         style="opacity:1;fill:url(#linearGradient4228);fill-opacity:1;stroke:none;stroke-width:2;stroke-miterlimit:4;stroke-dasharray:none;stroke-opacity:1;" />
      <path
         inkscape:connector-curvature="0"
         id="circle4232"
         d="M 21.990234,1040.0692 A 10,10 0 0 1 12,1049.8622 10,10 0 0 1 2.0097656,1040.1552 10,10 0 0 0 2,1040.3622 a 10,10 0 0 0 10,10 10,10 0 0 0 10,-10 10,10 0 0 0 -0.0098,-0.293 z"
         style="opacity:1;fill:#a37836;fill-opacity:1;stroke:none;stroke-width:2;stroke-miterlimit:4;stroke-dasharray:none;stroke-opacity:1;" />
      <path
         inkscape:connector-curvature="0"
         id="rect4248"
         d="m 9.7070312,1045.6454 -1.4160156,1.416 3.2792964,3.2793 a 10,10 0 0 0 0.429688,0.022 10,10 0 0 0 2.169922,-0.252 l -4.4628908,-4.4648 z"
         style="opacity:0.2;fill:url(#linearGradient4269);fill-opacity:1;stroke:none;stroke-width:2;stroke-linecap:round;stroke-linejoin:round;stroke-miterlimit:4;stroke-dasharray:none;stroke-opacity:1;" />
      <path
         inkscape:connector-curvature="0"
         id="path4215"
         d="m 9,1045.3622 a 1,1 0 0 0 -1,1 1,1 0 0 0 1,1 1,1 0 0 0 1,-1 1,1 0 0 0 -1,-1 z"
         style="font-style:normal;font-variant:normal;font-weight:bold;font-stretch:normal;font-size:medium;line-height:125%;font-family:Tangerine;-inkscape-font-specification:'Tangerine Bold';letter-spacing:0px;word-spacing:0px;fill:#eddbbc;fill-opacity:1;stroke:none;stroke-width:1px;stroke-linecap:butt;stroke-linejoin:miter;stroke-opacity:1;" />
      <path
         inkscape:connector-curvature="0"
         id="rect4250"
         d="m 12.681641,1046.6278 -1.416016,1.4141 2.201172,2.2012 a 10,10 0 0 0 2.234375,-0.5957 l -3.019531,-3.0196 z"
         style="opacity:0.2;fill:url(#linearGradient4277);fill-opacity:1;stroke:none;stroke-width:2;stroke-linecap:round;stroke-linejoin:round;stroke-miterlimit:4;stroke-dasharray:none;stroke-opacity:1;" />
      <path
         inkscape:connector-curvature="0"
         id="rect4252"
         d="m 15.65625,1045.6161 -1.416016,1.416 2.257813,2.2578 a 10,10 0 0 0 1.728515,-1.1035 l -2.570312,-2.5703 z"
         style="opacity:0.2;fill:url(#linearGradient4285);fill-opacity:1;stroke:none;stroke-width:2;stroke-linecap:round;stroke-linejoin:round;stroke-miterlimit:4;stroke-dasharray:none;stroke-opacity:1;" />
      <path
         inkscape:connector-curvature="0"
         id="path4213"
         d="m 15,1045.3622 a 1,1 0 0 0 -1,1 1,1 0 0 0 1,1 1,1 0 0 0 1,-1 1,1 0 0 0 -1,-1 z"
         style="font-style:normal;font-variant:normal;font-weight:bold;font-stretch:normal;font-size:medium;line-height:125%;font-family:Tangerine;-inkscape-font-specification:'Tangerine Bold';letter-spacing:0px;word-spacing:0px;fill:#eddbbc;fill-opacity:1;stroke:none;stroke-width:1px;stroke-linecap:butt;stroke-linejoin:miter;stroke-opacity:1;" />
      <path
         inkscape:connector-curvature="0"
         id="path4149"
         d="m 12,1046.3622 a 1,1 0 0 0 -1,1 1,1 0 0 0 1,1 1,1 0 0 0 1,-1 1,1 0 0 0 -1,-1 z"
         style="font-style:normal;font-variant:normal;font-weight:bold;font-stretch:normal;font-size:medium;line-height:125%;font-family:Tangerine;-inkscape-font-specification:'Tangerine Bold';letter-spacing:0px;word-spacing:0px;fill:#eddbbc;fill-opacity:1;stroke:none;stroke-width:1px;stroke-linecap:butt;stroke-linejoin:miter;stroke-opacity:1;" />
      <path
         inkscape:connector-curvature="0"
         id="rect4152"
         d="m 17.369141,1033.5243 -1.033203,0.082 -1.871094,0.834 -1.302735,1.5176 -1.27539,2.8984 -1.117188,2.1114 -0.724609,1.1425 -1.6562501,-0.4355 -1.3457031,0.1309 -0.59375,0.6679 -0.041016,0.8282 0.011719,0.4199 6.6835942,6.5664 A 10,10 0 0 0 22,1040.3622 a 10,10 0 0 0 -0.326172,-2.5 l -4.304687,-4.334 0,-0 z"
         style="opacity:0.2;fill:url(#linearGradient4190);fill-opacity:1;stroke:none;stroke-width:4;stroke-linecap:butt;stroke-linejoin:miter;stroke-miterlimit:4;stroke-dasharray:none;stroke-opacity:1;" />
      <path
         inkscape:connector-curvature="0"
         id="path4219"
         d="m 16.675781,1033.3505 c -0.445236,-0.02 -0.937879,0.1023 -1.550781,0.3476 -0.74629,0.2986 -1.337985,0.9663 -1.912109,1.7891 -0.574125,0.8229 -1.118905,1.8223 -1.646485,2.8418 -0.745807,1.4412 -1.398016,2.4856 -2.0527341,3.5176 -0.1566,-0.068 -0.639264,-0.2909 -1.3457031,-0.4063 -0.4060099,-0.066 -0.8409035,-0.096 -1.265625,0.051 -0.4226215,0.1463 -0.8090129,0.5632 -0.8828126,1.1016 -0.057606,0.3737 0.041701,0.749 0.2480469,1.0234 0.2082956,0.2771 0.5002198,0.4606 0.8183594,0.5781 0.6362793,0.2349 1.4075661,0.2249 2.1171875,-0.068 l 0.087891,-0.037 0.070312,-0.066 c 0.1700201,-0.1666 0.3206494,-0.4865 0.484375,-0.6993 0.105813,0.09 0.091696,0.092 0.216797,0.1875 0.52739,0.4009 1.185002,0.8535 1.949219,0.8535 0.68516,0 1.65206,-0.2658 2.533203,-0.5195 0.881143,-0.2537 1.626953,-0.5058 1.626953,-0.5058 l -0.322266,-0.9493 c 0,0 -0.72674,0.2459 -1.582031,0.4922 -0.855291,0.2462 -1.886927,0.4824 -2.255859,0.4824 -0.289875,0 -0.884664,-0.2973 -1.34375,-0.6464 -0.145046,-0.1102 -0.137887,-0.1213 -0.251953,-0.2207 0.681715,-1.1002 1.347765,-2.3712 2.039062,-3.7071 0.520955,-1.0067 1.050733,-1.9755 1.576172,-2.7285 0.525439,-0.7531 1.058362,-1.271 1.464844,-1.4336 0.539869,-0.2161 0.925063,-0.2847 1.134765,-0.2754 0.209703,0.01 0.22244,0.035 0.271485,0.1153 0.09809,0.1596 0.117644,0.8722 -0.08008,1.7929 l 0.978515,0.209 c 0.210561,-0.9806 0.38071,-1.8297 -0.04687,-2.5254 -0.2138,-0.3479 -0.632892,-0.5721 -1.078128,-0.5918 l 0,-0 z m -9.1191404,9.0351 c 0.1349064,0 0.2898877,0.01 0.4492188,0.035 l 0,0.01 c 0.4871855,0.08 0.7843753,0.2167 0.9941406,0.3008 -0.082459,0.1043 -0.2010181,0.3975 -0.2792969,0.4785 -0.4437671,0.1532 -0.9539914,0.174 -1.2890625,0.051 -0.1804813,-0.067 -0.3038823,-0.1606 -0.3652344,-0.2422 -0.061352,-0.082 -0.083542,-0.1418 -0.0625,-0.2715 l 0.00195,-0.01 0.00195,-0.012 c 0.030301,-0.2314 0.063929,-0.2367 0.2207031,-0.291 0.078387,-0.027 0.1932186,-0.043 0.328125,-0.045 l 0,-0 z"
         style="font-style:normal;font-variant:normal;font-weight:bold;font-stretch:normal;font-size:medium;line-height:125%;font-family:Tangerine;-inkscape-font-specification:'Tangerine Bold';letter-spacing:0px;word-spacing:0px;fill:url(#linearGradient4243);fill-opacity:1;stroke:none;stroke-width:1px;stroke-linecap:butt;stroke-linejoin:miter;stroke-opacity:1;" />
    </g>
  </g>
</svg>
