<?xml version="1.0" encoding="UTF-8" standalone="no"?>
<!-- Created with Inkscape (http://www.inkscape.org/) -->

<svg
   xmlns:dc="http://purl.org/dc/elements/1.1/"
   xmlns:cc="http://creativecommons.org/ns#"
   xmlns:rdf="http://www.w3.org/1999/02/22-rdf-syntax-ns#"
   xmlns:svg="http://www.w3.org/2000/svg"
   xmlns="http://www.w3.org/2000/svg"
   xmlns:xlink="http://www.w3.org/1999/xlink"
   xmlns:sodipodi="http://sodipodi.sourceforge.net/DTD/sodipodi-0.dtd"
   xmlns:inkscape="http://www.inkscape.org/namespaces/inkscape"
   width="32"
   height="32"
   viewBox="0 0 32 32.000001"
   id="svg2"
   version="1.1"
   inkscape:version="0.91 r13725"
   sodipodi:docname="latte-dock32.svg">
  <defs
     id="defs4">
    <linearGradient
       id="linearGradient4162"
       inkscape:collect="always">
      <stop
         id="stop4164"
         offset="0"
         style="stop-color:#f3e0c1;stop-opacity:1" />
      <stop
         id="stop4166"
         offset="1"
         style="stop-color:#fff7eb;stop-opacity:1" />
    </linearGradient>
    <linearGradient
       inkscape:collect="always"
       xlink:href="#d-5"
       id="linearGradient4190"
       x1="22.385242"
       y1="18.387005"
       x2="39.823719"
       y2="35.825481"
       gradientUnits="userSpaceOnUse"
       gradientTransform="matrix(0.75248844,0,0,0.75248844,-2.19148,1019.1599)" />
    <linearGradient
       gradientTransform="matrix(0.70711,-0.70711,0.70711,0.70711,-273.44,450.74)"
       gradientUnits="userSpaceOnUse"
       x2="0"
       y2="544.78998"
       y1="531.78998"
       id="d-5">
      <stop
         id="stop4286" />
      <stop
         id="stop4288"
         stop-opacity="0"
         offset="1" />
    </linearGradient>
    <linearGradient
       id="linearGradient4386"
       y1="538.79999"
       y2="505.79999"
       x2="0"
       gradientUnits="userSpaceOnUse"
       gradientTransform="matrix(1.45455,0,0,1,-198.81,-31)">
      <stop
         id="stop4390"
         stop-color="#e8b971"
         offset="0" />
      <stop
         id="stop4388"
         stop-color="#bd8d48"
         offset="1" />
    </linearGradient>
    <linearGradient
       inkscape:collect="always"
       xlink:href="#linearGradient4386"
       id="linearGradient4221"
       x1="16.114807"
       y1="1021.4925"
       x2="16.114807"
       y2="1051.0685"
       gradientUnits="userSpaceOnUse" />
    <linearGradient
       inkscape:collect="always"
       xlink:href="#linearGradient4162"
       id="linearGradient4240"
       x1="15.006763"
       y1="23.084547"
       x2="15.006763"
       y2="6.6625118"
       gradientUnits="userSpaceOnUse"
       gradientTransform="translate(0,1020.3622)" />
    <linearGradient
       inkscape:collect="always"
       xlink:href="#d-5"
       id="linearGradient4266"
       x1="18.462507"
       y1="24.650295"
       x2="22.927013"
       y2="29.114801"
       gradientUnits="userSpaceOnUse"
       gradientTransform="translate(0,1020.3622)" />
    <linearGradient
       inkscape:collect="always"
       xlink:href="#d-5"
       id="linearGradient4268"
       x1="14.621103"
       y1="26.453819"
       x2="18.822126"
       y2="30.654842"
       gradientUnits="userSpaceOnUse"
       gradientTransform="translate(0,1020.3622)" />
    <linearGradient
       inkscape:collect="always"
       xlink:href="#d-5"
       id="linearGradient4270"
       x1="10.661341"
       y1="24.648125"
       x2="16.828993"
       y2="30.815777"
       gradientUnits="userSpaceOnUse"
       gradientTransform="translate(0,1020.3622)" />
  </defs>
  <sodipodi:namedview
     id="base"
     pagecolor="#ffffff"
     bordercolor="#666666"
     borderopacity="1.0"
     inkscape:pageopacity="0.0"
     inkscape:pageshadow="2"
     inkscape:zoom="10.66"
     inkscape:cx="8.2415352"
     inkscape:cy="10.417742"
     inkscape:document-units="px"
     inkscape:current-layer="layer1"
     showgrid="false"
     units="px"
     inkscape:window-width="1600"
     inkscape:window-height="844"
     inkscape:window-x="0"
     inkscape:window-y="30"
     inkscape:window-maximized="1">
    <inkscape:grid
       type="xygrid"
       id="grid4246" />
  </sodipodi:namedview>
  <metadata
     id="metadata7">
    <rdf:RDF>
      <cc:Work
         rdf:about="">
        <dc:format>image/svg+xml</dc:format>
        <dc:type
           rdf:resource="http://purl.org/dc/dcmitype/StillImage" />
        <dc:title></dc:title>
      </cc:Work>
    </rdf:RDF>
  </metadata>
  <g
     inkscape:label="Layer 1"
     inkscape:groupmode="layer"
     id="layer1"
     transform="translate(0,-1020.3622)">
    <circle
       style="opacity:1;fill:url(#linearGradient4221);fill-opacity:1;stroke:none;stroke-width:2;stroke-miterlimit:4;stroke-dasharray:none;stroke-opacity:1;"
       id="path4136"
       cx="16"
       cy="1036.3622"
       r="15" />
    <path
       style="opacity:1;fill:#a37836;fill-opacity:1;stroke:none;stroke-width:2;stroke-miterlimit:4;stroke-dasharray:none;stroke-opacity:1;"
       d="M 30.980469,1035.7763 A 15,15 0 0 1 16,1050.3622 15,15 0 0 1 1.0195312,1035.9481 15,15 0 0 0 1,1036.3622 a 15,15 0 0 0 15,15 15,15 0 0 0 15,-15 15,15 0 0 0 -0.01953,-0.5859 z"
       id="circle4191"
       inkscape:connector-curvature="0" />
    <path
       inkscape:connector-curvature="0"
       style="opacity:0.2;fill:url(#linearGradient4270);fill-opacity:1.0;stroke:none;stroke-width:2;stroke-linecap:round;stroke-linejoin:round;stroke-miterlimit:4;stroke-dasharray:none;stroke-opacity:1"
       d="m 12.464844,1044.6962 -2.126953,2.1269 4.480468,4.4805 a 15,15 0 0 0 1.181641,0.059 15,15 0 0 0 2.845703,-0.2852 l -6.380859,-6.3808 z"
       id="rect4245" />
    <path
       inkscape:connector-curvature="0"
       style="font-style:normal;font-variant:normal;font-weight:bold;font-stretch:normal;font-size:medium;line-height:125%;font-family:Tangerine;-inkscape-font-specification:'Tangerine Bold';letter-spacing:0px;word-spacing:0px;fill:#eddbbc;fill-opacity:1;stroke:none;stroke-width:1px;stroke-linecap:butt;stroke-linejoin:miter;stroke-opacity:1;"
       d="m 11.5,1044.3622 a 1.4999999,1.4999999 0 0 0 -1.5,1.5 1.4999999,1.4999999 0 0 0 1.5,1.5 1.4999999,1.4999999 0 0 0 1.5,-1.5 1.4999999,1.4999999 0 0 0 -1.5,-1.5 z"
       id="path4227" />
    <path
       inkscape:connector-curvature="0"
       style="opacity:0.2;fill:url(#linearGradient4266);fill-opacity:1.0;stroke:none;stroke-width:2;stroke-linecap:round;stroke-linejoin:round;stroke-miterlimit:4;stroke-dasharray:none;stroke-opacity:1"
       d="m 20.427734,1044.663 -2.126953,2.1289 3.421875,3.4219 a 15,15 0 0 0 2.757813,-1.4981 l -4.052735,-4.0527 z"
       id="rect4249" />
    <path
       inkscape:connector-curvature="0"
       style="font-style:normal;font-variant:normal;font-weight:bold;font-stretch:normal;font-size:medium;line-height:125%;font-family:Tangerine;-inkscape-font-specification:'Tangerine Bold';letter-spacing:0px;word-spacing:0px;fill:#eddbbc;fill-opacity:1;stroke:none;stroke-width:1px;stroke-linecap:butt;stroke-linejoin:miter;stroke-opacity:1;"
       d="m 19.5,1044.3622 a 1.4999999,1.4999999 0 0 0 -1.5,1.5 1.4999999,1.4999999 0 0 0 1.5,1.5 1.4999999,1.4999999 0 0 0 1.5,-1.5 1.4999999,1.4999999 0 0 0 -1.5,-1.5 z"
       id="path4225" />
    <path
       inkscape:connector-curvature="0"
       style="opacity:0.2;fill:url(#linearGradient4268);fill-opacity:1.0;stroke:none;stroke-width:2;stroke-linecap:round;stroke-linejoin:round;stroke-miterlimit:4;stroke-dasharray:none;stroke-opacity:1"
       d="m 16.480469,1046.7196 -2.128907,2.1289 2.484376,2.4844 a 15,15 0 0 0 3.599609,-0.6582 l -3.955078,-3.9551 z"
       id="rect4247" />
    <path
       inkscape:connector-curvature="0"
       style="font-style:normal;font-variant:normal;font-weight:bold;font-stretch:normal;font-size:medium;line-height:125%;font-family:Tangerine;-inkscape-font-specification:'Tangerine Bold';letter-spacing:0px;word-spacing:0px;fill:#eddbbc;fill-opacity:1;stroke:none;stroke-width:1px;stroke-linecap:butt;stroke-linejoin:miter;stroke-opacity:1;"
       d="m 15.5,1046.3622 a 1.5000004,1.5000004 0 0 0 -1.5,1.5 1.5000004,1.5000004 0 0 0 1.5,1.5 1.5000004,1.5000004 0 0 0 1.5,-1.5 1.5000004,1.5000004 0 0 0 -1.5,-1.5 z"
       id="path4201" />
    <path
       inkscape:connector-curvature="0"
       style="opacity:0.2;fill:url(#linearGradient4190);fill-opacity:1;stroke:none;stroke-width:4;stroke-linecap:butt;stroke-linejoin:miter;stroke-miterlimit:4;stroke-dasharray:none;stroke-opacity:1;"
       d="m 24.330078,1027.1727 -1.597656,0.127 -2.894531,1.291 -2.015625,2.3457 -1.460938,4.5879 -1.523437,3.8828 -1.22461,1.8731 -3.177734,-1.4981 -2.0820314,0.2031 -0.9199218,1.0352 -0.0625,1.2793 0.017578,0.6523 8.4003902,8.4004 a 15,15 0 0 0 0.210938,0.01 15,15 0 0 0 15,-15 15,15 0 0 0 -0.289062,-2.8633 l -6.38086,-6.3262 z"
       id="rect4152" />
    <path
       inkscape:connector-curvature="0"
       style="font-style:normal;font-variant:normal;font-weight:bold;font-stretch:normal;font-size:medium;line-height:125%;font-family:Tangerine;-inkscape-font-specification:'Tangerine Bold';letter-spacing:0px;word-spacing:0px;fill:url(#linearGradient4240);fill-opacity:1;stroke:none;stroke-width:1px;stroke-linecap:butt;stroke-linejoin:miter;stroke-opacity:1;"
       d="m 23.261719,1026.8642 c -0.839079,0 -1.644064,0.2206 -2.416016,0.664 -0.755172,0.4264 -1.469362,1.0488 -2.140625,1.8672 -0.654481,0.8015 -1.250098,1.79 -1.787109,2.9668 -0.537009,1.1594 -0.996835,2.4729 -1.382813,3.9395 -0.268504,1.0402 -0.538135,1.9185 -0.80664,2.6347 -0.268505,0.7163 -0.544792,1.3117 -0.830078,1.7891 -0.62092,-0.2387 -1.233753,-0.958 -1.837891,-1.1113 -0.587355,-0.1706 -1.191582,-0.2559 -1.8125,-0.2559 -0.4866656,0 -0.9312273,0.077 -1.3339845,0.2305 -0.3859775,0.1534 -0.720573,0.3407 -1.0058594,0.5625 -0.285288,0.2216 -0.5118726,0.459 -0.6796875,0.7148 C 7.0774812,1041.1237 7,1041.8885 7,1042.1102 c 0,0.3581 0.168275,0.656 0.5039062,0.8946 0.3356321,0.2388 0.8404557,0.3574 1.5117188,0.3574 1.778847,0 3.280803,-0.4682 4.505859,-1.4062 0.771953,0.3413 1.55972,0.6638 2.365235,0.9707 0.822298,0.2899 1.728636,0.4355 2.71875,0.4355 1.124365,0 2.022096,-0.2373 2.693359,-0.7148 0.671264,-0.4944 1.056227,-1.126 1.458984,-2.0469 0.01678,-0.1029 -0.0051,-0.1714 -0.07227,-0.2051 -0.05034,-0.051 -0.110607,-0.051 -0.177735,0 -0.285284,0.5798 -0.495318,0.9468 -0.93164,1.2539 -0.436322,0.3068 -1.074985,0.4609 -1.914063,0.4609 -1.006895,0 -1.928498,-0.1122 -2.767578,-0.3339 -0.822298,-0.2387 -1.612016,-0.5032 -2.367187,-0.793 1.040458,-1.2448 1.856004,-3.0099 2.443359,-5.2949 0.352414,-1.4325 0.695618,-2.6252 1.03125,-3.5801 0.335632,-0.9549 0.696055,-1.7125 1.082031,-2.2754 0.385976,-0.5798 0.806663,-0.9073 1.259766,-1.1289 0.469884,-0.2388 1.022457,-0.3555 1.660156,-0.3555 0.469885,0 0.854184,0.086 1.15625,0.2559 0.318851,0.1534 0.554043,0.3575 0.705078,0.6133 0.151039,0.2558 0.237131,0.4627 0.253907,0.7695 0.01679,0.307 -0.02627,0.9119 -0.126953,1.2188 -0.01679,0.086 0.0071,0.1458 0.07422,0.1796 0.08391,0.035 0.16139,0.027 0.228516,-0.025 0.167816,-0.2899 0.325528,-0.957 0.476562,-1.4003 0.151036,-0.4606 0.228519,-0.864 0.228519,-1.2051 0,-0.5287 -0.161619,-0.9701 -0.480469,-1.3281 -0.318849,-0.3753 -0.737583,-0.5625 -1.257812,-0.5625 z M 9.140625,1040.204 c 0.7216081,0 1.401364,0.1004 2.039063,0.3047 0.6377,0.2047 1.267752,0.9714 1.888671,1.2441 -0.385976,0.3752 -0.82388,0.6292 -1.310547,0.7657 -0.469884,0.1191 -1.005237,0.1796 -1.609374,0.1796 -0.6880457,0 -1.2273049,-0.1102 -1.6132818,-0.332 -0.3691949,-0.2217 -0.5527342,-1.0279 -0.5527343,-1.3691 0,-0.5285 0.3862503,-0.793 1.1582031,-0.793 z"
       id="path4231" />
  </g>
</svg>
