<?xml version="1.0" encoding="UTF-8" standalone="no"?>
<!-- Created with Inkscape (http://www.inkscape.org/) -->

<svg
   xmlns:dc="http://purl.org/dc/elements/1.1/"
   xmlns:cc="http://creativecommons.org/ns#"
   xmlns:rdf="http://www.w3.org/1999/02/22-rdf-syntax-ns#"
   xmlns:svg="http://www.w3.org/2000/svg"
   xmlns="http://www.w3.org/2000/svg"
   xmlns:sodipodi="http://sodipodi.sourceforge.net/DTD/sodipodi-0.dtd"
   xmlns:inkscape="http://www.inkscape.org/namespaces/inkscape"
   width="512"
   height="512"
   viewBox="0 0 512 512.00001"
   id="svg2"
   version="1.1"
   inkscape:version="0.91 r13725"
   sodipodi:docname="splitter.svg">
  <sodipodi:namedview
     id="base"
     pagecolor="#ffffff"
     bordercolor="#666666"
     borderopacity="1.0"
     inkscape:pageopacity="0.0"
     inkscape:pageshadow="2"
     inkscape:zoom="0.50000001"
     inkscape:cx="436.40315"
     inkscape:cy="490.54081"
     inkscape:document-units="px"
     inkscape:current-layer="layer1"
     showgrid="false"
     units="px"
     inkscape:window-width="2009"
     inkscape:window-height="983"
     inkscape:window-x="435"
     inkscape:window-y="137"
     inkscape:window-maximized="0"
     showguides="true"
     inkscape:guide-bbox="true">
    <sodipodi:guide
       position="1270,1140"
       orientation="0,1"
       id="guide4145" />
  </sodipodi:namedview>
  <metadata
     id="metadata7">
    <rdf:RDF>
      <cc:Work
         rdf:about="">
        <dc:format>image/svg+xml</dc:format>
        <dc:type
           rdf:resource="http://purl.org/dc/dcmitype/StillImage" />
        <dc:title />
      </cc:Work>
    </rdf:RDF>
  </metadata>
  <defs
     id="defs81">
    <style
       id="current-color-scheme"
       type="text/css">
   .ColorScheme-Text { color:#d3dae3; } .ColorScheme-Highlight { color:#5294e2; } .ColorScheme-ButtonBackground { color:#4f4f4f; }
  </style>
  </defs>
  <g
     inkscape:label="Layer 1"
     inkscape:groupmode="layer"
     id="layer1"
     transform="translate(0,-540.36208)">
    <path
       class="ColorScheme-Highlight"
       style="opacity:1;fill:currentColor;fill-opacity:1;stroke:none;stroke-width:2;stroke-linecap:round;stroke-linejoin:miter;stroke-miterlimit:0;stroke-dasharray:2, 2;stroke-dashoffset:5.81371117;stroke-opacity:1"
       d="m 104.78516,656.36206 c -43.556551,0 -78.622897,35.08209 -78.622897,78.6582 l 0,122.68555 c 0,43.57611 35.066346,78.65625 78.622897,78.65625 l 95.3771,0 0,-280 -95.3771,0 z"
       id="rect4163"
       inkscape:connector-curvature="0" />
    <path
       class="ColorScheme-Highlight"
       style="opacity:1;fill:currentColor;fill-opacity:1;stroke:none;stroke-width:2;stroke-linecap:round;stroke-linejoin:miter;stroke-miterlimit:0;stroke-dasharray:2, 2;stroke-dashoffset:6;stroke-opacity:1"
       d="M 200 26 L 200 116 L 104.78516 116 C 61.228605 116 26.162109 151.08209 26.162109 194.6582 L 26.162109 317.34375 C 26.162109 360.91986 61.228605 396 104.78516 396 L 200 396 L 200 486 L 246 486 L 246 26 L 200 26 z "
       transform="translate(0,540.36208)"
       id="rect4159" />
    <path
       style="fill:#f2f2f2;fill-opacity:1;fill-rule:evenodd;stroke:none;stroke-width:4.89378166pt;stroke-opacity:1"
       d="m 98.011205,762.61298 -45.978532,33.74909 45.978532,33.74907 0,-67.49816 z m 2.681525,16.96074 0,33.57669 83.92944,0 0,-33.57669 -83.92944,0 z"
       id="path4289"
       class="ColorScheme-Highlight"
       inkscape:connector-curvature="0" />
    <path
       id="path4189"
       class="ColorScheme-Highlight"
       d="m 312,566.36208 0,90 95.21484,0 c 43.55655,0 78.62305,35.08209 78.62305,78.6582 l 0,122.68555 c 0,43.57611 -35.0665,78.65625 -78.62305,78.65625 l -95.21484,0 0,90.00002 -46,0 0,-460.00002 46,0 z"
       style="opacity:1;fill:currentColor;fill-opacity:1;stroke:none;stroke-width:2;stroke-linecap:round;stroke-linejoin:miter;stroke-miterlimit:0;stroke-dasharray:2, 2;stroke-dashoffset:6;stroke-opacity:1"
       inkscape:connector-curvature="0" />
    <path
       class="ColorScheme-ButtonBackground"
       style="opacity:1;fill:currentColor;fill-opacity:1;stroke:none;stroke-opacity:1"
       d="m 98.011719,762.61208 c -15.326172,11.25 -30.652344,22.5 -45.978516,33.75 15.326172,11.25 30.652344,22.5 45.978516,33.75 0,-5.6543 0,-11.30859 0,-16.96289 28.866611,0.004 57.741491,7e-4 86.611331,0.002 0,-11.19271 0,-22.38541 0,-33.57812 -28.87044,0 -57.74089,0 -86.611331,0 0,-5.65365 0,-11.30729 0,-16.96094 z"
       id="leftarrow"
       inkscape:connector-curvature="0" />
    <path
       inkscape:connector-curvature="0"
       class="ColorScheme-ButtonBackground"
       id="rightarrow"
       d="m 414.15054,762.61208 c 15.32618,11.25 30.65235,22.5 45.97852,33.75 -15.32617,11.25 -30.65234,22.5 -45.97852,33.75 0,-5.6543 0,-11.30859 0,-16.96289 -28.86661,0.004 -57.74149,7e-4 -86.61133,0.002 0,-11.19271 0,-22.38541 0,-33.57812 28.87044,0 57.74089,0 86.61133,0 0,-5.65365 0,-11.30729 0,-16.96094 z"
       style="opacity:1;fill:currentColor;fill-opacity:1;stroke:none;stroke-opacity:1" />
  </g>
</svg>
