<?xml version="1.0" encoding="UTF-8" standalone="no"?>
<!-- Created with Inkscape (http://www.inkscape.org/) -->

<svg
   xmlns:dc="http://purl.org/dc/elements/1.1/"
   xmlns:cc="http://creativecommons.org/ns#"
   xmlns:rdf="http://www.w3.org/1999/02/22-rdf-syntax-ns#"
   xmlns:svg="http://www.w3.org/2000/svg"
   xmlns="http://www.w3.org/2000/svg"
   xmlns:sodipodi="http://sodipodi.sourceforge.net/DTD/sodipodi-0.dtd"
   xmlns:inkscape="http://www.inkscape.org/namespaces/inkscape"
   width="106.43755"
   height="47.818604"
   viewBox="0 0 106.43755 47.818605"
   id="svg2"
   version="1.1"
   inkscape:version="0.91 r13725">
  <defs>
    <style type="text/css" id="current-color-scheme">
      .ColorScheme-Text {
        color:#232627;
      }
      </style>
  </defs>
  <sodipodi:namedview
     id="base"
     pagecolor="#ffffff"
     bordercolor="#666666"
     borderopacity="1.0"
     inkscape:pageopacity="0.0"
     inkscape:pageshadow="2"
     inkscape:zoom="7.919596"
     inkscape:cx="66.579611"
     inkscape:cy="24.779844"
     inkscape:document-units="px"
     inkscape:current-layer="flowRoot4136"
     showgrid="false"
     fit-margin-top="0"
     fit-margin-left="0"
     fit-margin-right="0"
     fit-margin-bottom="0"
     inkscape:window-width="2560"
     inkscape:window-height="1407"
     inkscape:window-x="0"
     inkscape:window-y="33"
     inkscape:window-maximized="1"
     units="px" />
  <g
     inkscape:label="Layer 1"
     inkscape:groupmode="layer"
     id="layer1"
     transform="translate(-0.35016404,13.286486)">
    <g
       transform="translate(-91.013979,-482.20128)"
       style="fill:currentColor" class="ColorScheme-Text"
       id="flowRoot4136">
      <path
         style="fill:currentColor" class="ColorScheme-Text"
         d="m 122.62606,508.74639 c 2.25802,1.25087 -3.08123,4.9297 -4.5785,6.21533 -3.19103,3.44998 -8.25493,1.15843 -7.36648,-3.44856 -0.48821,-2.35974 1.47843,-8.08271 0.90599,-7.9411 -3.7554,5.08908 -7.68647,11.02747 -14.141764,13.05844 -4.353452,0.56548 -6.157117,-4.43445 -6.059364,-7.89006 -0.453602,-9.79267 6.220931,-19.40259 15.436108,-23.20641 4.29405,-1.56131 9.56889,-1.80883 13.44935,0.8879 1.76498,-1.81579 7.52876,-2.75969 3.64645,0.68178 -4.9582,6.71905 -7.95056,14.83339 -8.6828,23.04589 -0.0769,6.92824 5.68356,1.02487 7.39101,-1.40321 z m -22.761709,3.67846 c 3.957229,-0.9011 6.335029,-4.64257 8.813119,-7.5026 3.48635,-4.61095 6.45213,-9.59779 8.84683,-14.82186 -2.02524,-4.42786 -8.56372,-4.49763 -12.29655,-2.15634 -7.008232,4.40543 -9.732545,13.4373 -8.406878,21.15315 0.34207,1.46216 1.26505,3.27129 3.043479,3.32765 z"
         id="path4164"
         inkscape:connector-curvature="0" />
      <path
         style="fill:currentColor" class="ColorScheme-Text"
         d="m 152.83396,484.77296 c 0.67014,2.73778 -6.24974,1.04513 -8.52134,1.85708 -4.45849,0.8905 -4.04656,7.98815 -6.04454,11.61806 -1.06669,4.1897 -2.70253,8.69832 -1.43845,12.99949 3.29433,4.36296 8.54097,-1.02626 10.37931,-4.15017 2.59541,1.50524 -2.71607,5.19133 -4.31893,6.81189 -2.63867,2.5686 -7.85366,4.37812 -10.37726,0.72539 -2.18107,-4.2331 -0.30527,-9.14393 0.60809,-13.47564 1.31759,-4.70272 2.95078,-9.31918 4.80027,-13.84922 -1.83385,0.21421 -9.54634,2.159 -5.02,-0.87999 2.38476,-1.8781 6.70925,0.15918 7.08033,-3.69678 2.09775,-4.08755 3.90411,-8.40854 6.58161,-12.15072 2.18118,-2.37449 7.25353,-2.40749 3.42569,1.16934 -2.65239,4.19037 -4.77551,8.66355 -6.83505,13.14812 3.22976,0.0512 6.45188,-0.0798 9.68027,-0.12685 z"
         id="path4166"
         inkscape:connector-curvature="0" />
      <path
         style="fill:currentColor" class="ColorScheme-Text"
         d="m 175.31768,484.77296 c 0.67015,2.73778 -6.24973,1.04513 -8.52134,1.85708 -4.45849,0.8905 -4.04655,7.98815 -6.04454,11.61806 -1.06669,4.1897 -2.70252,8.69832 -1.43845,12.99949 3.29433,4.36296 8.54098,-1.02626 10.37931,-4.15017 2.59542,1.50524 -2.71607,5.19133 -4.31892,6.81189 -2.63868,2.5686 -7.85366,4.37812 -10.37726,0.72539 -2.18107,-4.2331 -0.30528,-9.14393 0.60808,-13.47564 1.31759,-4.70272 2.95078,-9.31918 4.80028,-13.84922 -1.83386,0.21421 -9.54634,2.159 -5.02,-0.87999 2.38476,-1.8781 6.70925,0.15918 7.08033,-3.69678 2.09775,-4.08755 3.90411,-8.40854 6.5816,-12.15072 2.18119,-2.37449 7.25353,-2.40749 3.4257,1.16934 -2.6524,4.19037 -4.77551,8.66355 -6.83506,13.14812 3.22977,0.0512 6.45189,-0.0798 9.68027,-0.12685 z"
         id="path4168"
         inkscape:connector-curvature="0" />
      <path
         style="fill:currentColor" class="ColorScheme-Text"
         d="m 197.80141,489.84671 c -0.46509,4.54955 -5.73492,6.35012 -9.5331,7.72953 -2.5144,1.8621 -8.80541,0.45555 -8.44896,4.45829 -0.14888,3.73097 -0.55302,8.41817 3.10192,10.73914 4.17789,1.72008 8.72956,-1.06432 11.34815,-4.15412 2.14544,1.50378 -3.0969,4.77451 -4.84014,6.08848 -4.1328,2.83201 -11.50613,3.15319 -13.83362,-2.02949 -2.14313,-6.2106 0.3682,-12.90202 3.29488,-18.47159 2.88234,-4.97662 7.66033,-10.61283 14.2179,-9.83037 2.53911,0.51779 4.72208,2.91173 4.69297,5.47013 z m -8.63376,-2.28319 c -5.5493,0.1408 -8.03355,5.97773 -8.76456,10.52801 4.24933,-0.7831 9.72452,-1.27903 11.9777,-5.41464 0.70423,-2.11821 -0.56577,-5.2222 -3.21314,-5.11337 z"
         id="path4170"
         inkscape:connector-curvature="0" />
    </g>
  </g>
</svg>
